nColumns=19
nRows=100
DataType=double
version=3
OpenSimVersion=4.1
endheader
time	ground_force_1_vx	ground_force_1_vy	ground_force_1_vz	ground_force_1_px	ground_force_1_py	ground_force_1_pz	ground_force_1_mx	ground_force_1_my	ground_force_1_mz	ground_force_2_vx	ground_force_2_vy	ground_force_2_vz	ground_force_2_px	ground_force_2_py	ground_force_2_pz	ground_force_2_mx	ground_force_2_my	ground_force_2_mz
0.43	-7.89238	69.9335	-5.73655	0.948594	0	-0.269732	-0	11.5155	-0	0	0	0	-0.00108982	0	-0.00029004	0	0	0
0.44	-4.01583	210.669	-15.8133	1.03912	0	-0.268681	-0	6.50068	-0	0	0	0	-0.00108982	0	-0.00029004	0	0	0
0.45	7.37648	481.249	-22.3862	1.04683	0	-0.268047	-0	2.49202	-0	0	0	0	-0.00108982	0	-0.00029004	0	0	0
0.46	-1.49372	790.959	5.25351	1.04997	0	-0.267524	-0	2.33331	-0	0	0	0	-0.00108982	0	-0.00029004	0	0	0
0.47	-49.4792	958.676	50.208	1.05249	0	-0.267082	-0	3.62013	-0	0	0	0	-0.00108982	0	-0.00029004	0	0	0
0.48	-116.993	962.001	40.8028	1.05411	0	-0.266598	-0	3.24471	-0	0	0	0	-0.00108982	0	-0.00029004	0	0	0
0.49	-177.763	955.877	-17.3817	1.05101	0	-0.265665	-0	1.02032	-0	0	0	0	-0.00108982	0	-0.00029004	0	0	0
0.5	-212.255	1042.28	-49.9725	1.03841	0	-0.264077	0	-0.969247	0	0	0	0	-0.00108982	0	-0.00029004	0	0	0
0.51	-212.765	1189.36	-39.949	1.01719	0	-0.262473	0	-1.14914	0	0	0	0	-0.00108982	0	-0.00029004	0	0	0
0.52	-190.886	1321.5	-30.4601	0.992935	0	-0.261518	-0	0.111829	-0	0	0	0	-0.00108982	0	-0.00029004	0	0	0
0.53	-160.075	1405.28	-33.8913	0.969128	0	-0.26108	-0	1.39185	-0	0	0	0	-0.00108982	0	-0.00029004	0	0	0
0.54	-130.299	1447.37	-36.3918	0.94634	0	-0.260645	-0	1.75433	-0	0	0	0	-0.00108982	0	-0.00029004	0	0	0
0.55	-103.563	1457.36	-37.6216	0.924226	0	-0.259803	-0	1.26741	-0	0	0	0	-0.00108982	0	-0.00029004	0	0	0
0.56	-79.7443	1439.59	-41.2567	0.902375	0	-0.258409	-0	0.506038	-0	0	0	0	-0.00108982	0	-0.00029004	0	0	0
0.57	-54.6419	1404	-48.8458	0.880202	0	-0.256608	0	-0.064065	0	0	0	0	-0.00108982	0	-0.00029004	0	0	0
0.58	-23.0636	1360.73	-58.7231	0.85698	0	-0.254779	0	-0.289003	0	0	0	0	-0.00108982	0	-0.00029004	0	0	0
0.59	15.0532	1313.6	-59.7195	0.832214	0	-0.253365	0	-0.203058	0	0	0	0	-0.00108982	0	-0.00029004	0	0	0
0.6	55.8842	1258.74	-49.1011	0.805795	0	-0.252707	-0	0.129184	-0	0	0	0	-0.00108982	0	-0.00029004	0	0	0
0.61	94.4266	1187.31	-36.6417	0.777818	0	-0.252933	-0	0.634687	-0	0	0	0	-0.00108982	0	-0.00029004	0	0	0
0.62	127.483	1096.51	-23.4048	0.748604	0	-0.25389	-0	1.1557	-0	0	0	0	-0.00108982	0	-0.00029004	0	0	0
0.63	153.572	990.335	-5.48362	0.719032	0	-0.255198	-0	1.44349	-0	0	0	0	-0.00108982	0	-0.00029004	0	0	0
0.64	167.43	868.417	13.5627	0.690531	0	-0.256414	-0	1.31099	-0	0	0	0	-0.00108982	0	-0.00029004	0	0	0
0.65	164.535	727.675	26.451	0.664349	0	-0.257148	-0	0.824286	-0	0	0	0	-0.00108982	0	-0.00029004	0	0	0
0.66	144.836	571.507	30.8192	0.640755	0	-0.257061	-0	0.334421	-0	0	0	0	-0.00108982	0	-0.00029004	0	0	0
0.67	112.079	414.905	28.0207	0.61873	0	-0.255768	-0	0.285102	-0	0	0	0	-0.00108982	0	-0.00029004	0	0	0
0.68	76.2969	279.661	18.175	0.59538	0	-0.252603	-0	0.91187	-0	0	0	0	-0.00108982	0	-0.00029004	0	0	0
0.69	50.1785	175.704	5.41198	0.562989	0	-0.246027	-0	2.03018	-0	0	0	0	-0.00108982	0	-0.00029004	0	0	0
0.7	35.1954	100.914	-2.60748	0.503922	0	-0.232252	-0	3.07006	-0	0	0	0	-0.00108982	0	-0.00029004	0	0	0
0.71	23.1176	53.0589	-3.35227	0.410014	0	-0.205931	-0	3.38504	-0	0	0	0	-0.00108982	0	-0.00029004	0	0	0
0.72	0	0	0	-0.00108982	0	-0.00029004	0	0	0	0	0	0	-0.00108982	0	-0.00029004	0	0	0
0.73	0	0	0	-0.00108982	0	-0.00029004	0	0	0	0	0	0	-0.00108982	0	-0.00029004	0	0	0
0.74	0	0	0	-0.00108982	0	-0.00029004	0	0	0	0	0	0	-0.00108982	0	-0.00029004	0	0	0
0.75	0	0	0	-0.00108982	0	-0.00029004	0	0	0	0	0	0	-0.00108982	0	-0.00029004	0	0	0
0.76	0	0	0	-0.00108982	0	-0.00029004	0	0	0	0	0	0	-0.00108982	0	-0.00029004	0	0	0
0.77	0	0	0	-0.00108982	0	-0.00029004	0	0	0	0	0	0	-0.00108982	0	-0.00029004	0	0	0
0.78	0	0	0	-0.00108982	0	-0.00029004	0	0	0	0	0	0	-0.00108982	0	-0.00029004	0	0	0
0.79	0	0	0	-0.00108982	0	-0.00029004	0	0	0	-9.02277	87.3017	-4.63995	0.999578	0	-0.337665	0	-0.856305	0
0.8	0	0	0	-0.00108982	0	-0.00029004	0	0	0	-6.10701	245.639	-14.392	1.06057	0	-0.321793	0	-0.906788	0
0.81	0	0	0	-0.00108982	0	-0.00029004	0	0	0	-4.87548	517.886	-23.4903	1.07072	0	-0.318102	-0	0.100701	-0
0.82	0	0	0	-0.00108982	0	-0.00029004	0	0	0	-31.0894	795.7	-15.4608	1.07502	0	-0.316772	-0	1.20128	-0
0.83	0	0	0	-0.00108982	0	-0.00029004	0	0	0	-86.8183	928.319	-6.28259	1.07685	0	-0.317223	-0	1.53171	-0
0.84	0	0	0	-0.00108982	0	-0.00029004	0	0	0	-139.131	918.851	-21.8397	1.07484	0	-0.319518	-0	1.06781	-0
0.85	0	0	0	-0.00108982	0	-0.00029004	0	0	0	-171.297	903.736	-34.2586	1.06501	0	-0.323003	-0	0.463885	-0
0.86	0	0	0	-0.00108982	0	-0.00029004	0	0	0	-189.249	971.97	-5.64971	1.0454	0	-0.325753	-0	0.247901	-0
0.87	0	0	0	-0.00108982	0	-0.00029004	0	0	0	-190.675	1098.32	33.4245	1.02037	0	-0.326534	-0	0.331352	-0
0.88	0	0	0	-0.00108982	0	-0.00029004	0	0	0	-172.283	1216.21	33.8578	0.99521	0	-0.326194	-0	0.352802	-0
0.89	0	0	0	-0.00108982	0	-0.00029004	0	0	0	-141.801	1295.67	15.4676	0.971034	0	-0.325894	-0	0.225112	-0
0.9	0	0	0	-0.00108982	0	-0.00029004	0	0	0	-111.217	1344.36	14.4991	0.947091	0	-0.326115	-0	0.139722	-0
0.91	0	0	0	-0.00108982	0	-0.00029004	0	0	0	-84.6246	1369.32	25.0561	0.923153	0	-0.326965	-0	0.215478	-0
0.92	0	0	0	-0.00108982	0	-0.00029004	0	0	0	-63.1996	1367.65	33.3204	0.899716	0	-0.328385	-0	0.390169	-0
0.93	0	0	0	-0.00108982	0	-0.00029004	0	0	0	-42.4722	1344.16	38.7488	0.877132	0	-0.330123	-0	0.622062	-0
0.94	0	0	0	-0.00108982	0	-0.00029004	0	0	0	-15.4644	1310.69	44.1124	0.855034	0	-0.331766	-0	1.01254	-0
0.95	0	0	0	-0.00108982	0	-0.00029004	0	0	0	19.0936	1271.89	50.4311	0.832555	0	-0.332921	-0	1.66406	-0
0.96	0	0	0	-0.00108982	0	-0.00029004	0	0	0	56.7529	1224.24	50.5383	0.808851	0	-0.333347	-0	2.47812	-0
0.97	0	0	0	-0.00108982	0	-0.00029004	0	0	0	93.5487	1162.47	40.1231	0.783396	0	-0.332937	-0	3.14196	-0
0.98	0	0	0	-0.00108982	0	-0.00029004	0	0	0	128.042	1084.18	23.3498	0.756167	0	-0.331682	-0	3.32672	-0
0.99	0	0	0	-0.00108982	0	-0.00029004	0	0	0	157.271	989.105	6.3565	0.72782	0	-0.329742	-0	2.93527	-0
1	0	0	0	-0.00108982	0	-0.00029004	0	0	0	175.07	876.139	-8.23348	0.699479	0	-0.327499	-0	2.20539	-0
1.01	0	0	0	-0.00108982	0	-0.00029004	0	0	0	177.211	744.995	-21.0483	0.672063	0	-0.325459	-0	1.56649	-0
1.02	0	0	0	-0.00108982	0	-0.00029004	0	0	0	164.192	598.496	-28.4501	0.645752	0	-0.324096	-0	1.33435	-0
1.03	0	0	0	-0.00108982	0	-0.00029004	0	0	0	137.681	446.171	-26.3602	0.620091	0	-0.32375	-0	1.48109	-0
1.04	0	0	0	-0.00108982	0	-0.00029004	0	0	0	100.773	307.483	-19.6218	0.594149	0	-0.324575	-0	1.67609	-0
1.05	0	0	0	-0.00108982	0	-0.00029004	0	0	0	63.5258	198.865	-13.4424	0.564871	0	-0.326325	-0	1.57302	-0
1.06	0	0	0	-0.00108982	0	-0.00029004	0	0	0	37.6929	121.47	-6.02067	0.521904	0	-0.327642	-0	1.10561	-0
1.07	0	0	0	-0.00108982	0	-0.00029004	0	0	0	23.0475	69.9699	0.89964	0.444311	0	-0.323691	-0	0.508589	-0
1.08	0	0	0	-0.00108982	0	-0.00029004	0	0	0	0	0	0	-0.00108982	0	-0.00029004	0	0	0
1.09	0	0	0	-0.00108982	0	-0.00029004	0	0	0	0	0	0	-0.00108982	0	-0.00029004	0	0	0
1.1	0	0	0	-0.00108982	0	-0.00029004	0	0	0	0	0	0	-0.00108982	0	-0.00029004	0	0	0
1.11	0	0	0	-0.00108982	0	-0.00029004	0	0	0	0	0	0	-0.00108982	0	-0.00029004	0	0	0
1.12	0	0	0	-0.00108982	0	-0.00029004	0	0	0	0	0	0	-0.00108982	0	-0.00029004	0	0	0
1.13	0	0	0	-0.00108982	0	-0.00029004	0	0	0	0	0	0	-0.00108982	0	-0.00029004	0	0	0
1.14	0	0	0	-0.00108982	0	-0.00029004	0	0	0	0	0	0	-0.00108982	0	-0.00029004	0	0	0
1.15	0	0	0	-0.00108982	0	-0.00029004	0	0	0	0	0	0	-0.00108982	0	-0.00029004	0	0	0
1.16	-0.853217	115.327	-6.88153	1.01569	0	-0.273599	-0	1.83598	-0	0	0	0	-0.00108982	0	-0.00029004	0	0	0
1.17	9.17682	327.079	-17.3798	1.04021	0	-0.278863	-0	0.485751	-0	0	0	0	-0.00108982	0	-0.00029004	0	0	0
1.18	10.1036	672.841	-10.1388	1.04622	0	-0.27973	-0	1.67867	-0	0	0	0	-0.00108982	0	-0.00029004	0	0	0
1.19	-30.7315	985.163	38.125	1.05002	0	-0.280188	-0	3.99364	-0	0	0	0	-0.00108982	0	-0.00029004	0	0	0
1.2	-105.432	1093.65	74.6849	1.05275	0	-0.28071	-0	4.7892	-0	0	0	0	-0.00108982	0	-0.00029004	0	0	0
1.21	-174.95	1068.31	38.6866	1.05207	0	-0.28109	-0	3.03729	-0	0	0	0	-0.00108982	0	-0.00029004	0	0	0
1.22	-216.107	1081.92	-20.4704	1.04331	0	-0.280631	-0	0.179754	-0	0	0	0	-0.00108982	0	-0.00029004	0	0	0
1.23	-222.473	1186.41	-36.728	1.0245	0	-0.27911	0	-1.54585	0	0	0	0	-0.00108982	0	-0.00029004	0	0	0
1.24	-205.575	1317.61	-27.6445	1.00027	0	-0.277436	0	-1.29184	0	0	0	0	-0.00108982	0	-0.00029004	0	0	0
1.25	-176.965	1410.81	-26.766	0.975847	0	-0.276365	0	-0.005653	0	0	0	0	-0.00108982	0	-0.00029004	0	0	0
1.26	-143.378	1457.78	-29.0116	0.952573	0	-0.275773	-0	0.919827	-0	0	0	0	-0.00108982	0	-0.00029004	0	0	0
1.27	-110.03	1472.76	-30.1147	0.929873	0	-0.275193	-0	0.92279	-0	0	0	0	-0.00108982	0	-0.00029004	0	0	0
1.28	-82.1186	1459.76	-33.4001	0.907312	0	-0.274288	-0	0.348011	-0	0	0	0	-0.00108982	0	-0.00029004	0	0	0
1.29	-59.6047	1423.14	-38.1186	0.884723	0	-0.272987	0	-0.227523	0	0	0	0	-0.00108982	0	-0.00029004	0	0	0
1.3	-34.2981	1374.23	-44.2815	0.861719	0	-0.271509	0	-0.502592	0	0	0	0	-0.00108982	0	-0.00029004	0	0	0
1.31	-0.323255	1321.46	-47.6676	0.837678	0	-0.270265	0	-0.460785	0	0	0	0	-0.00108982	0	-0.00029004	0	0	0
1.32	41.2715	1265.49	-41.3637	0.812179	0	-0.269655	0	-0.143945	0	0	0	0	-0.00108982	0	-0.00029004	0	0	0
1.33	82.0613	1198.97	-27.9789	0.785245	0	-0.269884	-0	0.446198	-0	0	0	0	-0.00108982	0	-0.00029004	0	0	0
1.34	115.203	1114.6	-15.0193	0.757172	0	-0.270867	-0	1.22107	-0	0	0	0	-0.00108982	0	-0.00029004	0	0	0
1.35	140.821	1011.86	-1.84401	0.728469	0	-0.272257	-0	1.87308	-0	0	0	0	-0.00108982	0	-0.00029004	0	0	0
1.36	157.412	892.172	15.2468	0.699984	0	-0.273603	-0	2.01105	-0	0	0	0	-0.00108982	0	-0.00029004	0	0	0
1.37	158.336	753.952	30.4084	0.672697	0	-0.274525	-0	1.52357	-0	0	0	0	-0.00108982	0	-0.00029004	0	0	0
1.38	141.272	598.888	36.1683	0.647208	0	-0.27476	-0	0.795536	-0	0	0	0	-0.00108982	0	-0.00029004	0	0	0
1.39	110.427	439.327	32.3666	0.623384	0	-0.274092	-0	0.484559	-0	0	0	0	-0.00108982	0	-0.00029004	0	0	0
1.4	75.271	297.551	21.6229	0.599911	0	-0.272161	-0	0.998256	-0	0	0	0	-0.00108982	0	-0.00029004	0	0	0
1.41	48.3046	188.507	8.24035	0.57188	0	-0.268024	-0	2.12077	-0	0	0	0	-0.00108982	0	-0.00029004	0	0	0
1.42	34.1319	110.338	-0.99543	0.525118	0	-0.259045	-0	3.12456	-0	0	0	0	-0.00108982	0	-0.00029004	0	0	0
